<svg preserveAspectRatio="none" overflow="visible" style="display: block;" width="530" height="171" viewBox="0 0 530 171" fill="none" xmlns="http://www.w3.org/2000/svg">
<g id="&#229;&#136;&#152;&#230;&#181;&#183;&#232;&#189;&#174;&#229;&#187;&#147;" filter="url(#filter0_d_0_4)">
<path d="M10 7.5H520C513.373 7.5 508 14.6634 508 23.5V141.5C508 150.337 500.837 157.5 492 157.5C340.667 157.5 189.333 157.5 38 157.5C29.1634 157.5 22 150.337 22 141.5V23.5C22 14.6634 16.6274 7.5 10 7.5Z" fill="black"/>
<path d="M10 7.5H520C513.373 7.5 508 14.6634 508 23.5V141.5C508 150.337 500.837 157.5 492 157.5C340.667 157.5 189.333 157.5 38 157.5C29.1634 157.5 22 150.337 22 141.5V23.5C22 14.6634 16.6274 7.5 10 7.5Z" stroke="black"/>
</g>
<defs>
<filter id="filter0_d_0_4" x="0" y="0" width="530" height="171" filterUnits="userSpaceOnUse" color-interpolation-filters="sRGB">
<feFlood flood-opacity="0" result="BackgroundImageFix"/>
<feColorMatrix in="SourceAlpha" type="matrix" values="0 0 0 0 0 0 0 0 0 0 0 0 0 0 0 0 0 0 127 0" result="hardAlpha"/>
<feOffset dy="3"/>
<feGaussianBlur stdDeviation="5"/>
<feColorMatrix type="matrix" values="0 0 0 0 0 0 0 0 0 0 0 0 0 0 0 0 0 0 0.26 0"/>
<feBlend mode="normal" in2="BackgroundImageFix" result="effect1_dropShadow_0_4"/>
<feBlend mode="normal" in="SourceGraphic" in2="effect1_dropShadow_0_4" result="shape"/>
</filter>
</defs>
</svg>
